<mxfile host="app.diagrams.net" modified="2021-01-28T21:51:54.588Z" agent="5.0 (Windows NT 6.1; Win64; x64) AppleWebKit/537.36 (KHTML, like Gecko) Chrome/88.0.4324.104 Safari/537.36" etag="mQV2seZbA0afzKyy2Vbk" version="14.2.7" type="github">
  <diagram id="R2lEEEUBdFMjLlhIrx00" name="Page-1">
    <mxGraphModel dx="3398" dy="2488" grid="1" gridSize="10" guides="1" tooltips="1" connect="1" arrows="1" fold="1" page="1" pageScale="1" pageWidth="850" pageHeight="1100" math="0" shadow="0" extFonts="Permanent Marker^https://fonts.googleapis.com/css?family=Permanent+Marker">
      <root>
        <mxCell id="0" />
        <mxCell id="1" parent="0" />
        <mxCell id="AUY6neWYd6_EHcUav7Q5-1" value="Vehiculo" style="swimlane;childLayout=stackLayout;horizontal=1;startSize=30;horizontalStack=0;rounded=1;fontSize=14;fontStyle=0;strokeWidth=2;resizeParent=0;resizeLast=1;shadow=0;dashed=0;align=center;" vertex="1" parent="1">
          <mxGeometry x="200" y="440" width="260" height="120" as="geometry" />
        </mxCell>
        <mxCell id="AUY6neWYd6_EHcUav7Q5-2" value="+Attribute1&#xa;+Attribute2&#xa;+Attribute3" style="align=left;strokeColor=none;fillColor=none;spacingLeft=4;fontSize=12;verticalAlign=top;resizable=0;rotatable=0;part=1;" vertex="1" parent="AUY6neWYd6_EHcUav7Q5-1">
          <mxGeometry y="30" width="260" height="90" as="geometry" />
        </mxCell>
        <mxCell id="AUY6neWYd6_EHcUav7Q5-3" value="" style="fontSize=12;html=1;endArrow=ERoneToMany;entryX=0.5;entryY=1;entryDx=0;entryDy=0;exitX=0.415;exitY=-0.011;exitDx=0;exitDy=0;exitPerimeter=0;" edge="1" parent="1" source="AUY6neWYd6_EHcUav7Q5-1" target="AUY6neWYd6_EHcUav7Q5-5">
          <mxGeometry width="100" height="100" relative="1" as="geometry">
            <mxPoint x="270" y="430" as="sourcePoint" />
            <mxPoint x="360" y="180" as="targetPoint" />
          </mxGeometry>
        </mxCell>
        <mxCell id="AUY6neWYd6_EHcUav7Q5-4" value="Factor&#xa;" style="swimlane;childLayout=stackLayout;horizontal=1;startSize=30;horizontalStack=0;rounded=1;fontSize=14;fontStyle=0;strokeWidth=2;resizeParent=0;resizeLast=1;shadow=0;dashed=0;align=center;" vertex="1" parent="1">
          <mxGeometry x="230" y="30" width="160" height="120" as="geometry" />
        </mxCell>
        <mxCell id="AUY6neWYd6_EHcUav7Q5-5" value="+Attribute1&#xa;+Attribute2&#xa;+Attribute3" style="align=left;strokeColor=none;fillColor=none;spacingLeft=4;fontSize=12;verticalAlign=top;resizable=0;rotatable=0;part=1;" vertex="1" parent="AUY6neWYd6_EHcUav7Q5-4">
          <mxGeometry y="30" width="160" height="90" as="geometry" />
        </mxCell>
        <mxCell id="AUY6neWYd6_EHcUav7Q5-6" value="Combustible" style="swimlane;childLayout=stackLayout;horizontal=1;startSize=30;horizontalStack=0;rounded=1;fontSize=14;fontStyle=0;strokeWidth=2;resizeParent=0;resizeLast=1;shadow=0;dashed=0;align=center;" vertex="1" parent="1">
          <mxGeometry x="-200" y="160" width="160" height="120" as="geometry" />
        </mxCell>
        <mxCell id="AUY6neWYd6_EHcUav7Q5-7" value="+Attribute1&#xa;+Attribute2&#xa;+Attribute3" style="align=left;strokeColor=none;fillColor=none;spacingLeft=4;fontSize=12;verticalAlign=top;resizable=0;rotatable=0;part=1;" vertex="1" parent="AUY6neWYd6_EHcUav7Q5-6">
          <mxGeometry y="30" width="160" height="90" as="geometry" />
        </mxCell>
        <mxCell id="AUY6neWYd6_EHcUav7Q5-12" value="Parametro" style="swimlane;childLayout=stackLayout;horizontal=1;startSize=30;horizontalStack=0;rounded=1;fontSize=14;fontStyle=0;strokeWidth=2;resizeParent=0;resizeLast=1;shadow=0;dashed=0;align=center;" vertex="1" parent="1">
          <mxGeometry x="-140" y="1130" width="160" height="120" as="geometry" />
        </mxCell>
        <mxCell id="AUY6neWYd6_EHcUav7Q5-13" value="+Attribute1&#xa;+Attribute2&#xa;+Attribute3" style="align=left;strokeColor=none;fillColor=none;spacingLeft=4;fontSize=12;verticalAlign=top;resizable=0;rotatable=0;part=1;" vertex="1" parent="AUY6neWYd6_EHcUav7Q5-12">
          <mxGeometry y="30" width="160" height="90" as="geometry" />
        </mxCell>
        <mxCell id="AUY6neWYd6_EHcUav7Q5-15" value="Odometro" style="swimlane;childLayout=stackLayout;horizontal=1;startSize=30;horizontalStack=0;rounded=1;fontSize=14;fontStyle=0;strokeWidth=2;resizeParent=0;resizeLast=1;shadow=0;dashed=0;align=center;" vertex="1" parent="1">
          <mxGeometry x="150" y="880" width="160" height="120" as="geometry" />
        </mxCell>
        <mxCell id="AUY6neWYd6_EHcUav7Q5-16" value="+Attribute1&#xa;+Attribute2&#xa;+Attribute3" style="align=left;strokeColor=none;fillColor=none;spacingLeft=4;fontSize=12;verticalAlign=top;resizable=0;rotatable=0;part=1;" vertex="1" parent="AUY6neWYd6_EHcUav7Q5-15">
          <mxGeometry y="30" width="160" height="90" as="geometry" />
        </mxCell>
        <mxCell id="AUY6neWYd6_EHcUav7Q5-18" value="Grupo" style="swimlane;childLayout=stackLayout;horizontal=1;startSize=30;horizontalStack=0;rounded=1;fontSize=14;fontStyle=0;strokeWidth=2;resizeParent=0;resizeLast=1;shadow=0;dashed=0;align=center;" vertex="1" parent="1">
          <mxGeometry x="320" y="730" width="160" height="120" as="geometry" />
        </mxCell>
        <mxCell id="AUY6neWYd6_EHcUav7Q5-19" value="+Attribute1&#xa;+Attribute2&#xa;+Attribute3" style="align=left;strokeColor=none;fillColor=none;spacingLeft=4;fontSize=12;verticalAlign=top;resizable=0;rotatable=0;part=1;" vertex="1" parent="AUY6neWYd6_EHcUav7Q5-18">
          <mxGeometry y="30" width="160" height="90" as="geometry" />
        </mxCell>
        <mxCell id="AUY6neWYd6_EHcUav7Q5-20" value="" style="fontSize=12;html=1;endArrow=ERoneToMany;exitX=0.5;exitY=0;exitDx=0;exitDy=0;" edge="1" parent="1" source="AUY6neWYd6_EHcUav7Q5-18">
          <mxGeometry width="100" height="100" relative="1" as="geometry">
            <mxPoint x="425" y="550" as="sourcePoint" />
            <mxPoint x="400" y="560" as="targetPoint" />
          </mxGeometry>
        </mxCell>
        <mxCell id="AUY6neWYd6_EHcUav7Q5-24" value="" style="edgeStyle=orthogonalEdgeStyle;fontSize=12;html=1;endArrow=ERoneToMany;exitX=1;exitY=0.25;exitDx=0;exitDy=0;entryX=0;entryY=0.5;entryDx=0;entryDy=0;" edge="1" parent="1" source="AUY6neWYd6_EHcUav7Q5-1" target="AUY6neWYd6_EHcUav7Q5-28">
          <mxGeometry width="100" height="100" relative="1" as="geometry">
            <mxPoint x="530" y="460" as="sourcePoint" />
            <mxPoint x="686.96" y="356" as="targetPoint" />
            <Array as="points">
              <mxPoint x="520" y="470" />
              <mxPoint x="520" y="405" />
            </Array>
          </mxGeometry>
        </mxCell>
        <mxCell id="AUY6neWYd6_EHcUav7Q5-27" value="Mantenimiento" style="swimlane;childLayout=stackLayout;horizontal=1;startSize=30;horizontalStack=0;rounded=1;fontSize=14;fontStyle=0;strokeWidth=2;resizeParent=0;resizeLast=1;shadow=0;dashed=0;align=center;" vertex="1" parent="1">
          <mxGeometry x="730" y="330" width="160" height="120" as="geometry" />
        </mxCell>
        <mxCell id="AUY6neWYd6_EHcUav7Q5-28" value="+Attribute1&#xa;+Attribute2&#xa;+Attribute3" style="align=left;strokeColor=none;fillColor=none;spacingLeft=4;fontSize=12;verticalAlign=top;resizable=0;rotatable=0;part=1;" vertex="1" parent="AUY6neWYd6_EHcUav7Q5-27">
          <mxGeometry y="30" width="160" height="90" as="geometry" />
        </mxCell>
        <mxCell id="AUY6neWYd6_EHcUav7Q5-29" value="Periodo" style="swimlane;childLayout=stackLayout;horizontal=1;startSize=30;horizontalStack=0;rounded=1;fontSize=14;fontStyle=0;strokeWidth=2;resizeParent=0;resizeLast=1;shadow=0;dashed=0;align=center;" vertex="1" parent="1">
          <mxGeometry x="750" y="30" width="160" height="120" as="geometry" />
        </mxCell>
        <mxCell id="AUY6neWYd6_EHcUav7Q5-30" value="+Attribute1&#xa;+Attribute2&#xa;+Attribute3" style="align=left;strokeColor=none;fillColor=none;spacingLeft=4;fontSize=12;verticalAlign=top;resizable=0;rotatable=0;part=1;" vertex="1" parent="AUY6neWYd6_EHcUav7Q5-29">
          <mxGeometry y="30" width="160" height="90" as="geometry" />
        </mxCell>
        <mxCell id="AUY6neWYd6_EHcUav7Q5-31" value="" style="fontSize=12;html=1;endArrow=ERoneToMany;entryX=1;entryY=0.25;entryDx=0;entryDy=0;exitX=0;exitY=0.25;exitDx=0;exitDy=0;" edge="1" parent="1" source="AUY6neWYd6_EHcUav7Q5-30" target="AUY6neWYd6_EHcUav7Q5-5">
          <mxGeometry width="100" height="100" relative="1" as="geometry">
            <mxPoint x="710" y="153" as="sourcePoint" />
            <mxPoint x="390" y="90" as="targetPoint" />
          </mxGeometry>
        </mxCell>
        <mxCell id="AUY6neWYd6_EHcUav7Q5-33" value="" style="fontSize=12;html=1;endArrow=ERoneToMany;entryX=0.571;entryY=-0.025;entryDx=0;entryDy=0;entryPerimeter=0;exitX=0.425;exitY=1.004;exitDx=0;exitDy=0;exitPerimeter=0;" edge="1" parent="1" source="AUY6neWYd6_EHcUav7Q5-30" target="AUY6neWYd6_EHcUav7Q5-27">
          <mxGeometry width="100" height="100" relative="1" as="geometry">
            <mxPoint x="821" y="250" as="sourcePoint" />
            <mxPoint x="1010" y="100" as="targetPoint" />
          </mxGeometry>
        </mxCell>
        <mxCell id="AUY6neWYd6_EHcUav7Q5-34" value="REG_COMBUS" style="swimlane;childLayout=stackLayout;horizontal=1;startSize=30;horizontalStack=0;rounded=1;fontSize=14;fontStyle=0;strokeWidth=2;resizeParent=0;resizeLast=1;shadow=0;dashed=0;align=center;" vertex="1" parent="1">
          <mxGeometry x="990" y="450" width="160" height="120" as="geometry" />
        </mxCell>
        <mxCell id="AUY6neWYd6_EHcUav7Q5-35" value="+Attribute1&#xa;+Attribute2&#xa;+Attribute3" style="align=left;strokeColor=none;fillColor=none;spacingLeft=4;fontSize=12;verticalAlign=top;resizable=0;rotatable=0;part=1;" vertex="1" parent="AUY6neWYd6_EHcUav7Q5-34">
          <mxGeometry y="30" width="160" height="90" as="geometry" />
        </mxCell>
        <mxCell id="AUY6neWYd6_EHcUav7Q5-36" value="" style="fontSize=12;html=1;endArrow=ERoneToMany;entryX=-0.006;entryY=0.32;entryDx=0;entryDy=0;entryPerimeter=0;" edge="1" parent="1" target="AUY6neWYd6_EHcUav7Q5-35">
          <mxGeometry width="100" height="100" relative="1" as="geometry">
            <mxPoint x="460" y="510" as="sourcePoint" />
            <mxPoint x="980" y="500" as="targetPoint" />
          </mxGeometry>
        </mxCell>
        <mxCell id="AUY6neWYd6_EHcUav7Q5-37" value="" style="fontSize=12;html=1;endArrow=ERoneToMany;edgeStyle=orthogonalEdgeStyle;entryX=0.5;entryY=0;entryDx=0;entryDy=0;exitX=1;exitY=0.75;exitDx=0;exitDy=0;" edge="1" parent="1" source="AUY6neWYd6_EHcUav7Q5-30" target="AUY6neWYd6_EHcUav7Q5-34">
          <mxGeometry width="100" height="100" relative="1" as="geometry">
            <mxPoint x="850" y="100" as="sourcePoint" />
            <mxPoint x="660" y="240" as="targetPoint" />
          </mxGeometry>
        </mxCell>
        <mxCell id="AUY6neWYd6_EHcUav7Q5-38" value="Estacion" style="swimlane;childLayout=stackLayout;horizontal=1;startSize=30;horizontalStack=0;rounded=1;fontSize=14;fontStyle=0;strokeWidth=2;resizeParent=0;resizeLast=1;shadow=0;dashed=0;align=center;" vertex="1" parent="1">
          <mxGeometry x="990" y="740" width="160" height="120" as="geometry" />
        </mxCell>
        <mxCell id="AUY6neWYd6_EHcUav7Q5-39" value="+Attribute1&#xa;+Attribute2&#xa;+Attribute3" style="align=left;strokeColor=none;fillColor=none;spacingLeft=4;fontSize=12;verticalAlign=top;resizable=0;rotatable=0;part=1;" vertex="1" parent="AUY6neWYd6_EHcUav7Q5-38">
          <mxGeometry y="30" width="160" height="90" as="geometry" />
        </mxCell>
        <mxCell id="AUY6neWYd6_EHcUav7Q5-40" value="" style="fontSize=12;html=1;endArrow=ERoneToMany;entryX=0.402;entryY=1.014;entryDx=0;entryDy=0;entryPerimeter=0;exitX=0.394;exitY=0.005;exitDx=0;exitDy=0;exitPerimeter=0;" edge="1" parent="1" source="AUY6neWYd6_EHcUav7Q5-38" target="AUY6neWYd6_EHcUav7Q5-35">
          <mxGeometry width="100" height="100" relative="1" as="geometry">
            <mxPoint x="770" y="680" as="sourcePoint" />
            <mxPoint x="870" y="580" as="targetPoint" />
          </mxGeometry>
        </mxCell>
        <mxCell id="AUY6neWYd6_EHcUav7Q5-41" value="" style="fontSize=12;html=1;endArrow=ERoneToMany;entryX=0;entryY=0.75;entryDx=0;entryDy=0;edgeStyle=orthogonalEdgeStyle;exitX=0.5;exitY=0;exitDx=0;exitDy=0;" edge="1" parent="1" source="AUY6neWYd6_EHcUav7Q5-12" target="AUY6neWYd6_EHcUav7Q5-2">
          <mxGeometry width="100" height="100" relative="1" as="geometry">
            <mxPoint x="100" y="780" as="sourcePoint" />
            <mxPoint x="440" y="710" as="targetPoint" />
          </mxGeometry>
        </mxCell>
        <mxCell id="AUY6neWYd6_EHcUav7Q5-42" value="Usuario_Prim" style="swimlane;childLayout=stackLayout;horizontal=1;startSize=30;horizontalStack=0;rounded=1;fontSize=14;fontStyle=0;strokeWidth=2;resizeParent=0;resizeLast=1;shadow=0;dashed=0;align=center;" vertex="1" parent="1">
          <mxGeometry x="-150" y="1370" width="160" height="120" as="geometry" />
        </mxCell>
        <mxCell id="AUY6neWYd6_EHcUav7Q5-43" value="+Attribute1&#xa;+Attribute2&#xa;+Attribute3" style="align=left;strokeColor=none;fillColor=none;spacingLeft=4;fontSize=12;verticalAlign=top;resizable=0;rotatable=0;part=1;" vertex="1" parent="AUY6neWYd6_EHcUav7Q5-42">
          <mxGeometry y="30" width="160" height="90" as="geometry" />
        </mxCell>
        <mxCell id="AUY6neWYd6_EHcUav7Q5-46" value="" style="fontSize=12;html=1;endArrow=ERmandOne;startArrow=ERmandOne;entryX=0.5;entryY=1;entryDx=0;entryDy=0;" edge="1" parent="1" target="AUY6neWYd6_EHcUav7Q5-13">
          <mxGeometry width="100" height="100" relative="1" as="geometry">
            <mxPoint x="-60" y="1370" as="sourcePoint" />
            <mxPoint x="460" y="1200" as="targetPoint" />
          </mxGeometry>
        </mxCell>
        <mxCell id="AUY6neWYd6_EHcUav7Q5-47" value="Estado" style="swimlane;childLayout=stackLayout;horizontal=1;startSize=30;horizontalStack=0;rounded=1;fontSize=14;fontStyle=0;strokeWidth=2;resizeParent=0;resizeLast=1;shadow=0;dashed=0;align=center;" vertex="1" parent="1">
          <mxGeometry x="610" y="1130" width="160" height="120" as="geometry" />
        </mxCell>
        <mxCell id="AUY6neWYd6_EHcUav7Q5-48" value="+Attribute1&#xa;+Attribute2&#xa;+Attribute3" style="align=left;strokeColor=none;fillColor=none;spacingLeft=4;fontSize=12;verticalAlign=top;resizable=0;rotatable=0;part=1;" vertex="1" parent="AUY6neWYd6_EHcUav7Q5-47">
          <mxGeometry y="30" width="160" height="90" as="geometry" />
        </mxCell>
        <mxCell id="AUY6neWYd6_EHcUav7Q5-51" value="" style="edgeStyle=entityRelationEdgeStyle;fontSize=12;html=1;endArrow=ERoneToMany;exitX=1.006;exitY=0.4;exitDx=0;exitDy=0;exitPerimeter=0;" edge="1" parent="1" source="AUY6neWYd6_EHcUav7Q5-13" target="AUY6neWYd6_EHcUav7Q5-48">
          <mxGeometry width="100" height="100" relative="1" as="geometry">
            <mxPoint x="200" y="1250" as="sourcePoint" />
            <mxPoint x="300" y="1150" as="targetPoint" />
          </mxGeometry>
        </mxCell>
        <mxCell id="AUY6neWYd6_EHcUav7Q5-53" value="Sub_Grupo" style="swimlane;childLayout=stackLayout;horizontal=1;startSize=30;horizontalStack=0;rounded=1;fontSize=14;fontStyle=0;strokeWidth=2;resizeParent=0;resizeLast=1;shadow=0;dashed=0;align=center;" vertex="1" parent="1">
          <mxGeometry x="-380" y="430" width="160" height="120" as="geometry" />
        </mxCell>
        <mxCell id="AUY6neWYd6_EHcUav7Q5-54" value="+Attribute1&#xa;+Attribute2&#xa;+Attribute3" style="align=left;strokeColor=none;fillColor=none;spacingLeft=4;fontSize=12;verticalAlign=top;resizable=0;rotatable=0;part=1;" vertex="1" parent="AUY6neWYd6_EHcUav7Q5-53">
          <mxGeometry y="30" width="160" height="90" as="geometry" />
        </mxCell>
        <mxCell id="AUY6neWYd6_EHcUav7Q5-55" value="" style="fontSize=12;html=1;endArrow=ERoneToMany;entryX=0;entryY=0.25;entryDx=0;entryDy=0;" edge="1" parent="1" target="AUY6neWYd6_EHcUav7Q5-2">
          <mxGeometry width="100" height="100" relative="1" as="geometry">
            <mxPoint x="-220" y="493" as="sourcePoint" />
            <mxPoint x="60" y="360" as="targetPoint" />
          </mxGeometry>
        </mxCell>
        <mxCell id="AUY6neWYd6_EHcUav7Q5-56" value="" style="edgeStyle=orthogonalEdgeStyle;fontSize=12;html=1;endArrow=ERoneToMany;entryX=0.25;entryY=0;entryDx=0;entryDy=0;" edge="1" parent="1" target="AUY6neWYd6_EHcUav7Q5-1">
          <mxGeometry width="100" height="100" relative="1" as="geometry">
            <mxPoint x="-40" y="225" as="sourcePoint" />
            <mxPoint x="90" y="350" as="targetPoint" />
            <Array as="points">
              <mxPoint x="265" y="225" />
            </Array>
          </mxGeometry>
        </mxCell>
        <mxCell id="AUY6neWYd6_EHcUav7Q5-57" value="Ticket" style="swimlane;childLayout=stackLayout;horizontal=1;startSize=30;horizontalStack=0;rounded=1;fontSize=14;fontStyle=0;strokeWidth=2;resizeParent=0;resizeLast=1;shadow=0;dashed=0;align=center;" vertex="1" parent="1">
          <mxGeometry x="1380" y="450" width="160" height="120" as="geometry" />
        </mxCell>
        <mxCell id="AUY6neWYd6_EHcUav7Q5-58" value="+Attribute1&#xa;+Attribute2&#xa;+Attribute3" style="align=left;strokeColor=none;fillColor=none;spacingLeft=4;fontSize=12;verticalAlign=top;resizable=0;rotatable=0;part=1;" vertex="1" parent="AUY6neWYd6_EHcUav7Q5-57">
          <mxGeometry y="30" width="160" height="90" as="geometry" />
        </mxCell>
        <mxCell id="AUY6neWYd6_EHcUav7Q5-61" value="" style="fontSize=12;html=1;endArrow=ERoneToMany;entryX=0;entryY=0.5;entryDx=0;entryDy=0;exitX=1;exitY=0.5;exitDx=0;exitDy=0;" edge="1" parent="1" source="AUY6neWYd6_EHcUav7Q5-35" target="AUY6neWYd6_EHcUav7Q5-58">
          <mxGeometry width="100" height="100" relative="1" as="geometry">
            <mxPoint x="1175" y="620" as="sourcePoint" />
            <mxPoint x="1275" y="520" as="targetPoint" />
          </mxGeometry>
        </mxCell>
        <mxCell id="AUY6neWYd6_EHcUav7Q5-62" value="Reg_Vehiculo" style="swimlane;childLayout=stackLayout;horizontal=1;startSize=30;horizontalStack=0;rounded=1;fontSize=14;fontStyle=0;strokeWidth=2;resizeParent=0;resizeLast=1;shadow=0;dashed=0;align=center;" vertex="1" parent="1">
          <mxGeometry x="1350" width="160" height="120" as="geometry" />
        </mxCell>
        <mxCell id="AUY6neWYd6_EHcUav7Q5-63" value="+Attribute1&#xa;+Attribute2&#xa;+Attribute3" style="align=left;strokeColor=none;fillColor=none;spacingLeft=4;fontSize=12;verticalAlign=top;resizable=0;rotatable=0;part=1;" vertex="1" parent="AUY6neWYd6_EHcUav7Q5-62">
          <mxGeometry y="30" width="160" height="90" as="geometry" />
        </mxCell>
        <mxCell id="AUY6neWYd6_EHcUav7Q5-64" value="" style="fontSize=12;html=1;endArrow=ERoneToMany;exitX=1.008;exitY=0.133;exitDx=0;exitDy=0;exitPerimeter=0;" edge="1" parent="1" source="AUY6neWYd6_EHcUav7Q5-30" target="AUY6neWYd6_EHcUav7Q5-63">
          <mxGeometry width="100" height="100" relative="1" as="geometry">
            <mxPoint x="1080" y="170" as="sourcePoint" />
            <mxPoint x="1310" y="104" as="targetPoint" />
          </mxGeometry>
        </mxCell>
        <mxCell id="AUY6neWYd6_EHcUav7Q5-65" value="" style="fontSize=12;html=1;endArrow=ERoneToMany;entryX=0.75;entryY=1;entryDx=0;entryDy=0;exitX=0.563;exitY=-0.008;exitDx=0;exitDy=0;exitPerimeter=0;" edge="1" parent="1" source="AUY6neWYd6_EHcUav7Q5-57" target="AUY6neWYd6_EHcUav7Q5-63">
          <mxGeometry width="100" height="100" relative="1" as="geometry">
            <mxPoint x="1430" y="420" as="sourcePoint" />
            <mxPoint x="1540" y="160" as="targetPoint" />
          </mxGeometry>
        </mxCell>
        <mxCell id="AUY6neWYd6_EHcUav7Q5-66" value="Correlativo" style="swimlane;childLayout=stackLayout;horizontal=1;startSize=30;horizontalStack=0;rounded=1;fontSize=14;fontStyle=0;strokeWidth=2;resizeParent=0;resizeLast=1;shadow=0;dashed=0;align=center;" vertex="1" parent="1">
          <mxGeometry x="1380" y="770" width="160" height="120" as="geometry" />
        </mxCell>
        <mxCell id="AUY6neWYd6_EHcUav7Q5-67" value="+Attribute1&#xa;+Attribute2&#xa;+Attribute3" style="align=left;strokeColor=none;fillColor=none;spacingLeft=4;fontSize=12;verticalAlign=top;resizable=0;rotatable=0;part=1;" vertex="1" parent="AUY6neWYd6_EHcUav7Q5-66">
          <mxGeometry y="30" width="160" height="90" as="geometry" />
        </mxCell>
        <mxCell id="AUY6neWYd6_EHcUav7Q5-69" value="" style="fontSize=12;html=1;endArrow=ERoneToMany;entryX=0.6;entryY=1;entryDx=0;entryDy=0;entryPerimeter=0;exitX=0.593;exitY=0.015;exitDx=0;exitDy=0;exitPerimeter=0;" edge="1" parent="1" source="AUY6neWYd6_EHcUav7Q5-66" target="AUY6neWYd6_EHcUav7Q5-58">
          <mxGeometry width="100" height="100" relative="1" as="geometry">
            <mxPoint x="1436" y="740" as="sourcePoint" />
            <mxPoint x="1540" y="660" as="targetPoint" />
          </mxGeometry>
        </mxCell>
        <mxCell id="AUY6neWYd6_EHcUav7Q5-70" value="Externo" style="swimlane;childLayout=stackLayout;horizontal=1;startSize=30;horizontalStack=0;rounded=1;fontSize=14;fontStyle=0;strokeWidth=2;resizeParent=0;resizeLast=1;shadow=0;dashed=0;align=center;" vertex="1" parent="1">
          <mxGeometry x="1790" width="160" height="120" as="geometry" />
        </mxCell>
        <mxCell id="AUY6neWYd6_EHcUav7Q5-71" value="+Attribute1&#xa;+Attribute2&#xa;+Attribute3" style="align=left;strokeColor=none;fillColor=none;spacingLeft=4;fontSize=12;verticalAlign=top;resizable=0;rotatable=0;part=1;" vertex="1" parent="AUY6neWYd6_EHcUav7Q5-70">
          <mxGeometry y="30" width="160" height="90" as="geometry" />
        </mxCell>
        <mxCell id="AUY6neWYd6_EHcUav7Q5-72" value="" style="fontSize=12;html=1;endArrow=ERoneToMany;exitX=-0.019;exitY=0.189;exitDx=0;exitDy=0;exitPerimeter=0;" edge="1" parent="1" source="AUY6neWYd6_EHcUav7Q5-71">
          <mxGeometry width="100" height="100" relative="1" as="geometry">
            <mxPoint x="1560" y="20" as="sourcePoint" />
            <mxPoint x="1510" y="47" as="targetPoint" />
          </mxGeometry>
        </mxCell>
        <mxCell id="AUY6neWYd6_EHcUav7Q5-74" value="" style="fontSize=12;html=1;endArrow=ERoneToMany;edgeStyle=orthogonalEdgeStyle;exitX=0;exitY=0.778;exitDx=0;exitDy=0;exitPerimeter=0;" edge="1" parent="1" source="AUY6neWYd6_EHcUav7Q5-30" target="AUY6neWYd6_EHcUav7Q5-47">
          <mxGeometry width="100" height="100" relative="1" as="geometry">
            <mxPoint x="740" y="130" as="sourcePoint" />
            <mxPoint x="830" y="800" as="targetPoint" />
            <Array as="points">
              <mxPoint x="670" y="130" />
            </Array>
          </mxGeometry>
        </mxCell>
        <mxCell id="AUY6neWYd6_EHcUav7Q5-76" value="" style="edgeStyle=orthogonalEdgeStyle;fontSize=12;html=1;endArrow=ERmandOne;startArrow=ERmandOne;exitX=0.851;exitY=-0.01;exitDx=0;exitDy=0;exitPerimeter=0;entryX=0.59;entryY=-0.03;entryDx=0;entryDy=0;entryPerimeter=0;" edge="1" parent="1" source="AUY6neWYd6_EHcUav7Q5-1" target="AUY6neWYd6_EHcUav7Q5-62">
          <mxGeometry width="100" height="100" relative="1" as="geometry">
            <mxPoint x="1000" y="-130" as="sourcePoint" />
            <mxPoint x="1100" y="-230" as="targetPoint" />
            <Array as="points">
              <mxPoint x="421" y="-230" />
              <mxPoint x="1444" y="-230" />
            </Array>
          </mxGeometry>
        </mxCell>
        <mxCell id="AUY6neWYd6_EHcUav7Q5-77" value="Exepciones_Oc_Ot" style="swimlane;childLayout=stackLayout;horizontal=1;startSize=30;horizontalStack=0;rounded=1;fontSize=14;fontStyle=0;strokeWidth=2;resizeParent=0;resizeLast=1;shadow=0;dashed=0;align=center;" vertex="1" parent="1">
          <mxGeometry x="140" y="1570" width="160" height="120" as="geometry" />
        </mxCell>
        <mxCell id="AUY6neWYd6_EHcUav7Q5-78" value="+Attribute1&#xa;+Attribute2&#xa;+Attribute3" style="align=left;strokeColor=none;fillColor=none;spacingLeft=4;fontSize=12;verticalAlign=top;resizable=0;rotatable=0;part=1;" vertex="1" parent="AUY6neWYd6_EHcUav7Q5-77">
          <mxGeometry y="30" width="160" height="90" as="geometry" />
        </mxCell>
        <mxCell id="AUY6neWYd6_EHcUav7Q5-79" value="Factura_Vale" style="swimlane;childLayout=stackLayout;horizontal=1;startSize=30;horizontalStack=0;rounded=1;fontSize=14;fontStyle=0;strokeWidth=2;resizeParent=0;resizeLast=1;shadow=0;dashed=0;align=center;" vertex="1" parent="1">
          <mxGeometry x="440" y="1570" width="160" height="120" as="geometry" />
        </mxCell>
        <mxCell id="AUY6neWYd6_EHcUav7Q5-80" value="+Attribute1&#xa;+Attribute2&#xa;+Attribute3" style="align=left;strokeColor=none;fillColor=none;spacingLeft=4;fontSize=12;verticalAlign=top;resizable=0;rotatable=0;part=1;" vertex="1" parent="AUY6neWYd6_EHcUav7Q5-79">
          <mxGeometry y="30" width="160" height="90" as="geometry" />
        </mxCell>
        <mxCell id="AUY6neWYd6_EHcUav7Q5-81" value="Prim_Oc_Ot" style="swimlane;childLayout=stackLayout;horizontal=1;startSize=30;horizontalStack=0;rounded=1;fontSize=14;fontStyle=0;strokeWidth=2;resizeParent=0;resizeLast=1;shadow=0;dashed=0;align=center;" vertex="1" parent="1">
          <mxGeometry x="720" y="1570" width="160" height="120" as="geometry" />
        </mxCell>
        <mxCell id="AUY6neWYd6_EHcUav7Q5-82" value="+Attribute1&#xa;+Attribute2&#xa;+Attribute3" style="align=left;strokeColor=none;fillColor=none;spacingLeft=4;fontSize=12;verticalAlign=top;resizable=0;rotatable=0;part=1;" vertex="1" parent="AUY6neWYd6_EHcUav7Q5-81">
          <mxGeometry y="30" width="160" height="90" as="geometry" />
        </mxCell>
        <mxCell id="AUY6neWYd6_EHcUav7Q5-83" value="Reporte" style="swimlane;childLayout=stackLayout;horizontal=1;startSize=30;horizontalStack=0;rounded=1;fontSize=14;fontStyle=0;strokeWidth=2;resizeParent=0;resizeLast=1;shadow=0;dashed=0;align=center;" vertex="1" parent="1">
          <mxGeometry x="620" y="1800" width="160" height="120" as="geometry" />
        </mxCell>
        <mxCell id="AUY6neWYd6_EHcUav7Q5-84" value="+Attribute1&#xa;+Attribute2&#xa;+Attribute3" style="align=left;strokeColor=none;fillColor=none;spacingLeft=4;fontSize=12;verticalAlign=top;resizable=0;rotatable=0;part=1;" vertex="1" parent="AUY6neWYd6_EHcUav7Q5-83">
          <mxGeometry y="30" width="160" height="90" as="geometry" />
        </mxCell>
        <mxCell id="AUY6neWYd6_EHcUav7Q5-85" value="Tarea_Priv" style="swimlane;childLayout=stackLayout;horizontal=1;startSize=30;horizontalStack=0;rounded=1;fontSize=14;fontStyle=0;strokeWidth=2;resizeParent=0;resizeLast=1;shadow=0;dashed=0;align=center;" vertex="1" parent="1">
          <mxGeometry x="300" y="1800" width="160" height="120" as="geometry" />
        </mxCell>
        <mxCell id="AUY6neWYd6_EHcUav7Q5-86" value="+Attribute1&#xa;+Attribute2&#xa;+Attribute3" style="align=left;strokeColor=none;fillColor=none;spacingLeft=4;fontSize=12;verticalAlign=top;resizable=0;rotatable=0;part=1;" vertex="1" parent="AUY6neWYd6_EHcUav7Q5-85">
          <mxGeometry y="30" width="160" height="90" as="geometry" />
        </mxCell>
        <mxCell id="AUY6neWYd6_EHcUav7Q5-87" value="" style="fontSize=12;html=1;endArrow=ERoneToMany;entryX=0.221;entryY=1.013;entryDx=0;entryDy=0;entryPerimeter=0;exitX=0.647;exitY=0.001;exitDx=0;exitDy=0;exitPerimeter=0;" edge="1" parent="1" source="AUY6neWYd6_EHcUav7Q5-15" target="AUY6neWYd6_EHcUav7Q5-2">
          <mxGeometry width="100" height="100" relative="1" as="geometry">
            <mxPoint x="580" y="850" as="sourcePoint" />
            <mxPoint x="680" y="750" as="targetPoint" />
          </mxGeometry>
        </mxCell>
      </root>
    </mxGraphModel>
  </diagram>
</mxfile>
